# xmcd
#
# Track frame offsets:
#	150
#	16920
#	33315
#	50992
#	79547
#	106682
#	134425
#	151370
#	167402
#	195047
#	208590
#	225622
#	256800
#
# Disc length: 3780 seconds
#
# Revision: 1
# Processed by: cddbd v1.5.2PL0 Copyright (c) Steve Scherf et al.
# Submitted via: audiograbber 1.83.01
#
DISCID=960ec20d
DTITLE=Jeanie Tracy - Jeanie Tracy - It's My Time (1995)-ORG
DYEAR=1995
DGENRE=Soul
TTITLE0=It's My Time
TTITLE1=If This Is Love
TTITLE2=It's A Man's Man's World
TTITLE3=Feel The Need
TTITLE4=I'm Gonna Get You
TTITLE5=Work It
TTITLE6=Crying In My Sleep
TTITLE7=Do You Believe In The Wonder
TTITLE8=Do You Wanna Be
TTITLE9=Free Like A Bird
TTITLE10=Call My Name
TTITLE11=Do The Right Thing
TTITLE12=It's A Man's Man's World (fast)
EXTD=
EXTT0=
EXTT1=
EXTT2=
EXTT3=
EXTT4=
EXTT5=
EXTT6=
EXTT7=
EXTT8=
EXTT9=
EXTT10=
EXTT11=
EXTT12=
PLAYORDER=
